<?xml version="1.0" standalone="no"?>
<!DOCTYPE svg PUBLIC "-//W3C//DTD SVG 20010904//EN"
 "http://www.w3.org/TR/2001/REC-SVG-20010904/DTD/svg10.dtd">
<svg version="1.0" xmlns="http://www.w3.org/2000/svg"
 width="300.000000pt" height="300.000000pt" viewBox="0 0 300.000000 300.000000"
 preserveAspectRatio="xMidYMid meet">

<g transform="translate(0.000000,300.000000) scale(0.100000,-0.100000)"
fill="#000000" stroke="none">
<path d="M775 2606 c-17 -7 -43 -28 -58 -46 l-28 -32 2 -893 c1 -1005 6 -938
-75 -997 -70 -50 -83 -97 -42 -145 l24 -28 143 0 142 0 21 -28 c15 -21 22 -47
24 -102 5 -82 21 -107 67 -108 47 0 65 29 65 100 0 69 18 116 50 133 13 7 48
8 93 4 72 -6 74 -6 96 22 36 45 24 97 -33 149 -56 52 -59 68 -54 293 3 139 7
183 20 207 31 57 129 165 149 165 21 0 111 -132 319 -470 134 -217 139 -236
104 -357 -34 -119 -35 -162 -3 -192 38 -35 97 -32 118 7 5 10 15 48 20 82 18
107 12 105 277 102 134 -1 242 2 264 8 52 14 80 54 80 114 0 58 -21 81 -118
130 -39 20 -83 48 -97 63 -14 16 -87 118 -161 228 -218 322 -301 445 -356 525
-78 113 -77 118 55 262 51 57 175 196 275 310 195 223 199 230 190 330 -5 45
-11 57 -50 94 -55 52 -125 70 -235 60 -132 -12 -182 -40 -263 -145 -194 -250
-271 -347 -455 -571 -38 -47 -79 -98 -90 -113 -11 -15 -25 -25 -32 -23 -7 3
-10 -1 -6 -10 3 -7 1 -14 -4 -14 -6 0 -11 122 -12 303 -3 327 -12 476 -32 520
-7 15 -29 38 -48 50 -32 20 -51 22 -176 25 -102 1 -148 -2 -170 -12z m321 -19
c17 -9 38 -26 46 -39 18 -28 30 -70 17 -62 -5 3 -9 -6 -9 -20 0 -14 4 -26 8
-26 9 0 6 -226 -3 -241 -4 -5 -5 -124 -4 -264 1 -185 5 -255 13 -252 6 2 10
13 9 23 -1 18 -1 18 11 2 34 -46 64 -19 242 220 303 405 453 591 497 616 87
50 251 57 328 14 46 -26 79 -83 78 -134 -1 -28 -3 -32 -6 -14 -3 14 -9 30 -15
35 -7 7 -9 6 -5 -1 7 -13 -19 -25 -98 -45 -46 -12 -106 -44 -113 -61 -2 -5 -8
-8 -12 -8 -5 0 -21 -11 -36 -25 -15 -14 -36 -25 -47 -25 -17 0 -18 -2 -6 -17
12 -15 12 -16 -3 -10 -12 4 -23 -1 -33 -16 -18 -27 -91 -108 -165 -186 -30
-31 -82 -91 -114 -133 -33 -42 -63 -75 -68 -72 -4 3 -8 -1 -8 -9 0 -8 -11 -25
-25 -38 -13 -13 -25 -32 -25 -41 0 -9 -9 -20 -20 -23 -11 -4 -18 -11 -15 -16
4 -5 1 -9 -4 -9 -6 0 -11 -7 -11 -15 0 -8 -5 -14 -12 -12 -7 1 -12 -4 -13 -11
0 -13 -64 -72 -79 -72 -5 0 -2 8 5 18 13 15 12 16 -3 3 -10 -7 -15 -17 -13
-22 6 -9 -93 -79 -112 -79 -7 0 -13 -4 -13 -10 0 -5 -15 -16 -32 -25 -18 -8
-47 -28 -64 -44 -17 -16 -44 -36 -61 -44 -88 -46 -111 -93 -78 -156 23 -46 30
-106 12 -122 -11 -10 -12 -20 -5 -39 7 -18 5 -27 -6 -36 -9 -6 -16 -21 -16
-33 0 -11 -4 -21 -9 -21 -5 0 -8 -26 -5 -58 3 -41 1 -50 -5 -32 l-9 25 -1 -27
c-1 -16 -5 -28 -11 -28 -5 0 -10 -7 -10 -15 0 -8 -4 -15 -8 -15 -5 0 -13 -12
-19 -27 l-11 -28 -2 30 c-1 27 -3 25 -14 -16 -19 -70 -94 -168 -157 -206 -83
-48 -121 -59 -158 -44 -26 11 -29 16 -20 33 6 10 32 32 59 49 30 19 54 43 66
67 30 64 36 290 30 1073 -4 452 -3 746 3 761 12 33 53 58 110 68 71 13 221 6
257 -13z m1215 -230 c-10 -9 -11 -8 -5 6 3 10 9 15 12 12 3 -3 0 -11 -7 -18z
m-648 -724 c-7 -2 -19 -2 -25 0 -7 3 -2 5 12 5 14 0 19 -2 13 -5z m-127 -28
c11 -15 17 -16 26 -7 7 7 33 12 59 12 26 0 60 5 75 11 26 9 31 7 61 -28 42
-48 128 -172 444 -643 54 -80 111 -158 128 -174 17 -16 65 -48 108 -71 52 -27
82 -50 91 -69 8 -15 11 -31 7 -34 -4 -4 -43 -7 -88 -7 -75 0 -89 3 -157 38
-92 46 -129 72 -202 144 -32 31 -58 53 -58 48 0 -4 -15 9 -32 30 -18 21 -43
50 -55 63 -13 14 -23 28 -23 33 0 4 -18 29 -41 55 -22 26 -45 57 -50 68 -5 12
-23 39 -40 61 -16 22 -37 51 -46 65 -10 14 -23 32 -30 40 -33 37 -73 94 -73
103 0 5 -20 34 -45 63 -26 30 -52 75 -62 105 -10 30 -25 61 -35 71 -10 10 -18
24 -18 31 0 20 40 14 56 -8z m102 -570 c-3 -3 -9 2 -12 12 -6 14 -5 15 5 6 7
-7 10 -15 7 -18z m127 -193 c-3 -3 -11 0 -18 7 -9 10 -8 11 6 5 10 -3 15 -9
12 -12z m-522 -202 c59 -57 58 -75 -6 -79 -50 -2 -112 23 -147 61 -33 35 -26
51 20 45 22 -2 37 0 34 4 -3 5 2 9 10 9 9 0 16 -4 16 -10 0 -5 8 -10 18 -10
11 0 13 3 5 8 -6 4 -14 25 -17 47 l-6 40 12 -34 c6 -19 34 -55 61 -81z m677
-68 c0 -4 -4 -12 -9 -17 -14 -14 -52 -157 -40 -150 16 10 10 -23 -7 -40 -18
-18 -33 -16 -47 7 -7 10 -3 38 13 89 13 41 22 79 21 84 -1 6 1 7 5 3 4 -5 13
1 21 12 14 20 43 28 43 12z m-914 -115 c10 -152 12 -137 -23 -152 -39 -17 -39
-17 -22 84 19 114 19 115 32 102 6 -6 12 -21 13 -34z"/>
<path d="M759 2524 c-20 -22 -24 -35 -23 -87 0 -34 1 -413 2 -842 2 -864 0
-884 -56 -954 -31 -38 -31 -39 -8 -37 30 4 48 15 40 27 -3 5 0 8 7 7 7 -2 18
7 24 19 7 13 15 20 20 15 5 -4 5 -2 1 5 -4 7 2 21 13 32 19 19 20 36 22 353 2
183 1 362 -1 398 -2 36 -4 287 -4 557 -1 271 -5 493 -9 493 -5 0 -5 9 -2 20 8
26 3 25 -26 -6z m11 -43 c0 -6 -4 -13 -10 -16 -5 -3 -10 1 -10 9 0 9 5 16 10
16 6 0 10 -4 10 -9z m7 -273 c-2 -13 -4 -5 -4 17 -1 22 1 32 4 23 2 -10 2 -28
0 -40z m0 -745 c-1 -54 -3 -10 -3 97 0 107 2 151 3 98 2 -54 2 -142 0 -195z"/>
<path d="M1076 2478 c-4 -9 -5 -22 -2 -27 8 -12 -31 -34 -44 -26 -13 8 -38
-51 -45 -107 l-5 -43 10 38 c11 44 39 86 58 87 15 0 17 -252 1 -281 -14 -27
-13 -529 1 -543 8 -8 9 -5 4 8 -5 13 -4 17 4 12 8 -4 12 0 12 11 0 19 32 53
51 53 6 0 8 -7 5 -17 -6 -14 -4 -14 14 2 20 18 20 20 3 26 -17 6 -18 28 -18
376 0 330 -2 373 -16 389 -10 11 -19 28 -21 39 -4 18 -6 18 -12 3z m34 -129
c0 -29 -13 -39 -25 -18 -10 15 4 61 15 54 6 -3 10 -19 10 -36z"/>
<path d="M948 2300 c-4 -14 -8 -34 -8 -45 1 -19 1 -19 11 -2 6 10 9 30 7 45
l-3 27 -7 -25z"/>
<path d="M1559 2003 c-13 -16 -12 -17 4 -4 9 7 17 15 17 17 0 8 -8 3 -21 -13z"/>
<path d="M1506 1981 c-16 -17 -16 -19 1 -25 9 -4 14 -4 11 0 -4 4 -3 15 3 25
12 24 7 24 -15 0z"/>
<path d="M1444 1908 c-16 -24 -34 -50 -41 -58 -7 -8 -40 -49 -75 -90 -34 -41
-68 -79 -75 -83 -15 -9 -18 -47 -4 -47 11 0 22 15 126 155 40 55 85 115 100
133 18 22 22 32 12 32 -8 0 -27 -19 -43 -42z"/>
<path d="M1225 1679 c-4 -6 -5 -12 -2 -15 2 -3 7 2 10 11 7 17 1 20 -8 4z"/>
<path d="M1297 1648 c-37 -41 -45 -54 -28 -43 11 6 74 85 69 85 -2 0 -20 -19
-41 -42z"/>
<path d="M1230 1590 c-9 -6 -10 -10 -3 -10 6 0 15 5 18 10 8 12 4 12 -15 0z"/>
<path d="M1710 1610 c-13 -8 -12 -10 3 -10 9 0 17 5 17 10 0 12 -1 12 -20 0z"/>
<path d="M1745 1544 c10 -17 26 -41 37 -55 l20 -24 -17 31 c-10 17 -26 41 -37
55 l-20 24 17 -31z"/>
<path d="M1800 1415 c0 -5 10 -21 21 -35 13 -17 17 -18 10 -5 -17 33 -31 51
-31 40z"/>
<path d="M2200 906 c0 -2 8 -10 18 -17 15 -13 16 -12 3 4 -13 16 -21 21 -21
13z"/>
</g>
</svg>
